# xmcd
#
# Track frame offsets: 
#        183
#        17293
#        33303
#        58250
#        80223
#        99758
#        119583
#        142538
#        165298
#        177543
#        195470
#        219238
#
# Disc length: 3226 seconds
#
# Revision: 9
# Processed by: cddbd v1.5.1PL2 Copyright (c) Steve Scherf et al.
# Submitted via: ExactAudioCopy v0.95b4
#
DISCID=920c980c
DTITLE=Bonnie Raitt - Luck Of The Draw 
DYEAR=1991
DGENRE=Rock
TTITLE0=Something To Talk About
TTITLE1=Good Man, Good Woman
TTITLE2=I Can't Make You Love Me
TTITLE3=Tangled And Dark
TTITLE4=Come To Me
TTITLE5=No Business
TTITLE6=One Part Be My Lover
TTITLE7=Not The Only One
TTITLE8=Papa Come Quick (Jody and Chico)
TTITLE9=Slow Ride
TTITLE10=Luck Of The Draw
TTITLE11=All At Once
EXTD=
EXTT0=
EXTT1=
EXTT2=
EXTT3=
EXTT4=
EXTT5=
EXTT6=
EXTT7=
EXTT8=
EXTT9=
EXTT10=
EXTT11=
PLAYORDER=
